HIERARCHY
ROOT Hips
{
 OFFSET 0.000000 0.000000 0.000000
 CHANNELS 6 Xposition Yposition Zposition Yrotation Xrotation Zrotation
 JOINT Chest
 {
  OFFSET 0.000000 9.585900 0.002600
  CHANNELS 3 Yrotation Xrotation Zrotation
  JOINT Chest2
  {
   OFFSET 0.000000 9.601200 -0.005300
   CHANNELS 3 Yrotation Xrotation Zrotation
   JOINT Chest3
   {
    OFFSET 0.000000 9.561800 0.000000
    CHANNELS 3 Yrotation Xrotation Zrotation
    JOINT Chest4
    {
     OFFSET 0.000000 9.552100 0.000000
     CHANNELS 3 Yrotation Xrotation Zrotation
     JOINT Neck
     {
      OFFSET 0.000000 14.453000 0.000000
      CHANNELS 3 Yrotation Xrotation Zrotation
      JOINT Head
      {
       OFFSET 0.000000 8.936500 -0.011300
       CHANNELS 3 Yrotation Xrotation Zrotation
       End Site
       {
        OFFSET 0.000000 17.073600 -0.006000
       }
      }
     }
     JOINT RightCollar
     {
      OFFSET -2.921100 9.558500 0.000000
      CHANNELS 3 Yrotation Xrotation Zrotation
      JOINT RightShoulder
      {
       OFFSET -13.519700 0.000000 0.000000
       CHANNELS 3 Yrotation Xrotation Zrotation
       JOINT RightElbow
       {
        OFFSET 0.000000 -29.696600 0.000000
        CHANNELS 3 Yrotation Xrotation Zrotation
        JOINT RightWrist
        {
         OFFSET 0.000000 -24.004700 0.000000
         CHANNELS 3 Yrotation Xrotation Zrotation
         End Site
         {
          OFFSET 0.000000 -17.728500 0.000000
         }
        }
       }
      }
     }
     JOINT LeftCollar
     {
      OFFSET 2.921100 9.558500 0.000000
      CHANNELS 3 Yrotation Xrotation Zrotation
      JOINT LeftShoulder
      {
       OFFSET 13.519700 0.000000 0.000000
       CHANNELS 3 Yrotation Xrotation Zrotation
       JOINT LeftElbow
       {
        OFFSET 0.000000 -29.696600 0.000000
        CHANNELS 3 Yrotation Xrotation Zrotation
        JOINT LeftWrist
        {
         OFFSET 0.000000 -24.004700 0.000000
         CHANNELS 3 Yrotation Xrotation Zrotation
         End Site
         {
          OFFSET 0.000000 -17.728500 0.000000
         }
        }
       }
      }
     }
    }
   }
  }
 }
 JOINT RightHip
 {
  OFFSET -7.771700 -0.012900 -0.001300
  CHANNELS 3 Yrotation Xrotation Zrotation
  JOINT RightKnee
  {
   OFFSET 0.000000 -40.869800 0.001200
   CHANNELS 3 Yrotation Xrotation Zrotation
   JOINT RightAnkle
   {
    OFFSET 0.000000 -39.717900 0.002100
    CHANNELS 3 Yrotation Xrotation Zrotation
    JOINT RightToe
    {
     OFFSET 0.000000 -4.965400 11.033500
     CHANNELS 3 Yrotation Xrotation Zrotation
     End Site
     {
      OFFSET 0.000000 -1.423100 5.872300
     }
    }
   }
  }
 }
 JOINT LeftHip
 {
  OFFSET 7.771700 -0.012900 -0.001300
  CHANNELS 3 Yrotation Xrotation Zrotation
  JOINT LeftKnee
  {
   OFFSET 0.000000 -40.869800 0.001200
   CHANNELS 3 Yrotation Xrotation Zrotation
   JOINT LeftAnkle
   {
    OFFSET 0.000000 -39.717900 0.002100
    CHANNELS 3 Yrotation Xrotation Zrotation
    JOINT LeftToe
    {
     OFFSET 0.000000 -4.965400 11.033500
     CHANNELS 3 Yrotation Xrotation Zrotation
     End Site
     {
      OFFSET 0.000000 -1.423100 5.872300
     }
    }
   }
  }
 }
}
MOTION
Frames: 11
Frame Time: 0.008333
-89.705761 44.066824 17.556766 174.808201 -23.314941 -1.883190 -0.419692 17.704928 2.977542 -0.106454 1.990452 0.389211 -0.174193 3.301709 0.641756 -0.473895 15.556603 3.008840 -1.658522 15.828664 -3.459064 -0.919369 -9.100781 -3.251194 8.844055 1.802932 -4.224518 -4.569657 -4.239875 -5.815198 -105.361146 -81.007780 125.539211 -6.297490 -2.322815 -48.699724 -9.939038 -0.608561 -5.180526 15.986687 0.779961 3.815225 159.365139 -71.095579 179.010546 17.258580 5.444883 45.055479 -3.940636 -68.748261 16.801377 -151.079103 70.716803 -149.969832 -10.333596 -22.163109 7.290595 0.264029 -0.842246 0.112901 5.019881 -52.381071 0.673156 177.642859 58.112263 176.787973 -3.846666 -42.131957 4.931935 0.007248 0.085571 0.045894
-89.706120 44.067823 17.552259 174.800745 -23.298529 -1.891389 -0.396236 17.688470 2.996879 -0.111987 1.988027 0.387934 -0.177394 3.300645 0.641086 -0.459798 15.546828 3.017688 -1.654350 15.822323 -3.450194 -0.899819 -9.131356 -3.226227 8.845418 1.803085 -4.237472 -4.577483 -4.198520 -5.922019 -105.490192 -81.081602 125.737428 -6.359787 -2.361026 -48.735150 -9.916631 -0.638407 -5.152393 16.017966 0.712650 3.835259 159.357231 -71.086937 178.948761 17.210990 5.436705 44.979422 -3.974303 -68.761916 16.840807 -151.056141 70.712382 -149.945839 -10.331722 -22.153834 7.286253 0.271692 -0.848786 0.115945 5.033479 -52.392452 0.702480 177.684637 58.109375 176.820948 -3.869450 -42.135933 4.964066 0.012999 0.083688 0.044098
-89.707345 44.067857 17.548719 174.794840 -23.277302 -1.896879 -0.375597 17.666551 3.013669 -0.116753 1.986278 0.386266 -0.165843 3.293212 0.645298 -0.462374 15.544490 3.021716 -1.599014 15.775364 -3.408136 -0.927410 -9.120016 -3.221723 8.878311 1.780253 -4.268091 -4.606314 -4.132914 -6.008857 -105.584716 -81.100868 125.864779 -6.378186 -2.366283 -48.748816 -9.907837 -0.659532 -5.133913 16.005229 0.721209 3.831951 159.656641 -71.012332 178.643303 17.157887 5.423564 44.904560 -4.009561 -68.779515 16.877635 -151.029230 70.708323 -149.922767 -10.324791 -22.148932 7.282622 0.274261 -0.853003 0.117529 5.039623 -52.410704 0.720581 177.711969 58.105876 176.840932 -3.879348 -42.139018 4.979922 0.012656 0.083176 0.040813
-89.708495 44.067436 17.545262 174.787400 -23.258633 -1.903703 -0.352105 17.646053 3.034741 -0.104707 1.981276 0.390450 -0.174474 3.291499 0.641755 -0.421819 15.515743 3.048500 -1.622465 15.775477 -3.399584 -0.926728 -9.135360 -3.204985 8.860228 1.786895 -4.302299 -4.619495 -4.077015 -6.093647 -105.630739 -81.097477 125.921842 -6.381868 -2.358013 -48.751468 -9.958411 -0.639895 -5.147955 16.004748 0.658912 3.861906 159.897320 -70.976659 178.412846 17.105069 5.405931 44.831496 -4.040220 -68.793328 16.914191 -151.015167 70.708786 -149.911556 -10.325867 -22.147670 7.282878 0.272326 -0.852492 0.117714 5.045312 -52.431448 0.738507 177.735815 58.098041 176.864364 -3.889921 -42.128848 4.970768 0.014922 0.075057 0.049302
-89.709831 44.065963 17.543262 174.788738 -23.233729 -1.915136 -0.338776 17.619559 3.056195 -0.097679 1.975662 0.395268 -0.176195 3.287930 0.639103 -0.433354 15.520120 3.045531 -1.621352 15.772284 -3.395336 -0.908321 -9.164423 -3.184568 8.862699 1.784862 -4.309461 -4.599160 -4.053102 -6.185878 -105.605599 -81.096641 125.901773 -6.387706 -2.352210 -48.756412 -9.939588 -0.674902 -5.113373 15.979154 0.632619 3.876854 160.143460 -70.945693 178.191063 17.053810 5.385833 44.764229 -4.080123 -68.816637 16.952611 -150.966226 70.702266 -149.863866 -10.318522 -22.135202 7.273671 0.294821 -0.855666 0.127965 5.045392 -52.459847 0.753996 177.759277 58.091059 176.886996 -3.900838 -42.125451 4.979041 0.021267 0.069009 0.058033
-89.711234 44.064908 17.539322 174.788495 -23.225266 -1.925858 -0.331129 17.610575 3.071206 -0.094880 1.972929 0.397941 -0.163964 3.281351 0.645227 -0.426532 15.508700 3.055375 -1.615018 15.757839 -3.380888 -0.931943 -9.141969 -3.194468 8.862485 1.774347 -4.341768 -4.599288 -4.012477 -6.251889 -105.510969 -81.079646 125.805684 -6.390959 -2.348962 -48.764349 -9.952081 -0.695656 -5.093184 15.963318 0.614793 3.889538 160.398902 -70.906552 177.959248 17.009505 5.369336 44.708129 -4.113267 -68.822859 16.984897 -150.901527 70.688006 -149.795757 -10.310924 -22.131640 7.263600 0.281938 -0.845942 0.132249 5.040052 -52.468213 0.773776 177.782542 58.084140 176.906585 -3.908849 -42.127169 4.988711 0.015513 0.069160 0.054681
-89.714092 44.063368 17.535348 174.786710 -23.220003 -1.928459 -0.319201 17.599762 3.086660 -0.099228 1.974129 0.393729 -0.143172 3.264838 0.659506 -0.436266 15.507214 3.056903 -1.606657 15.740423 -3.369544 -0.925868 -9.160898 -3.184036 8.895822 1.749604 -4.388941 -4.632120 -3.962328 -6.296754 -105.366864 -81.027929 125.648410 -6.391865 -2.347994 -48.768162 -9.962268 -0.714338 -5.076735 15.951405 0.591146 3.904787 160.614376 -70.874175 177.762867 16.977303 5.356764 44.669966 -4.127507 -68.825130 16.993430 -150.898660 70.684755 -149.794205 -10.300547 -22.136310 7.259831 0.271983 -0.838481 0.130250 5.046698 -52.471191 0.775741 177.793232 58.078793 176.915001 -3.913745 -42.132274 4.998471 0.010902 0.072800 0.046690
-89.715071 44.060367 17.534224 174.785748 -23.201355 -1.944918 -0.289221 17.574375 3.124804 -0.101253 1.971212 0.393497 -0.152785 3.264274 0.655584 -0.429834 15.497503 3.065732 -1.598574 15.720331 -3.358427 -0.919535 -9.182706 -3.173939 8.892505 1.750978 -4.409826 -4.636222 -3.955779 -6.358787 -105.147002 -81.033876 125.461640 -6.392547 -2.346966 -48.780730 -9.974430 -0.738822 -5.054915 15.939815 0.568692 3.922020 160.703171 -70.867735 177.688622 16.936411 5.330097 44.642534 -4.163059 -68.840865 17.018480 -150.934040 70.690160 -149.824486 -10.263093 -22.190881 7.262425 0.230460 -0.788038 0.110260 5.070881 -52.497179 0.772154 177.784052 58.067298 176.927313 -3.915756 -42.129338 4.995291 0.011204 0.070860 0.047455
-89.722322 44.058431 17.528604 174.809161 -23.210430 -1.931475 -0.306474 17.577306 3.110724 -0.109538 1.976015 0.388998 -0.149482 3.261128 0.657873 -0.420376 15.485294 3.077068 -1.588883 15.699181 -3.348476 -0.911497 -9.205432 -3.165324 8.910589 1.735472 -4.440950 -4.660129 -3.941396 -6.408316 -104.873245 -81.036935 125.223337 -6.356709 -2.366829 -48.796840 -9.989300 -0.761111 -5.032232 15.929596 0.542219 3.940438 160.607770 -70.901549 177.801398 16.868892 5.278798 44.611760 -4.115132 -68.831539 16.935419 -150.979100 70.685129 -149.858782 -10.289537 -22.161871 7.254237 0.260910 -0.824082 0.121841 5.103873 -52.486514 0.712106 177.764310 58.064272 176.916748 -3.922156 -42.121914 4.993601 0.012141 0.069316 0.047458
-89.726579 44.056233 17.523332 174.830322 -23.222844 -1.934902 -0.317026 17.580621 3.114312 -0.108272 1.978293 0.390305 -0.154989 3.263382 0.655155 -0.396037 15.461935 3.097202 -1.596832 15.688401 -3.346845 -0.879322 -9.288061 -3.144225 8.928372 1.710822 -4.478636 -4.699192 -3.903625 -6.435597 -104.635140 -81.054317 125.029964 -6.366870 -2.418094 -48.850417 -10.017991 -0.775178 -5.019599 15.909346 0.516562 3.963986 160.829747 -70.836121 177.593187 16.947696 5.321016 44.650681 -4.109904 -68.817999 16.901701 -151.041320 70.681889 -149.909108 -10.302436 -22.179094 7.251637 0.273281 -0.809020 0.120372 5.117954 -52.477405 0.680908 177.753544 58.055711 176.920309 -3.919801 -42.112562 4.975616 0.012515 0.070154 0.046985
-89.731114 44.054755 17.515629 174.865487 -23.253783 -1.940122 -0.341738 17.602390 3.113984 -0.097586 1.965051 0.396821 -0.163751 3.272704 0.649992 -0.406381 15.470746 3.093649 -1.552245 15.622692 -3.320562 -0.892960 -9.267398 -3.148680 8.936399 1.696292 -4.487797 -4.706765 -3.890519 -6.445172 -104.537105 -81.096627 124.982763 -6.401846 -2.465029 -48.903900 -10.037411 -0.844958 -4.952063 15.906681 0.534521 3.961648 160.843271 -70.811782 177.580042 16.986158 5.335130 44.693636 -4.106830 -68.784964 16.858584 -151.206539 70.685805 -150.060588 -10.336472 -22.208606 7.252050 0.271848 -0.805045 0.117398 5.123133 -52.445229 0.645426 177.743139 58.049292 176.921704 -3.916990 -42.111599 4.973978 0.012763 0.066705 0.048270
